<?xml version="1.0" encoding="UTF-8"?><svg id="Ebene_2" xmlns="http://www.w3.org/2000/svg" viewBox="0 0 440 220"><defs><style>.cls-1{fill:none;}.cls-1,.cls-2{stroke-width:0px;}.cls-2{fill:var(--theme-color);}</style></defs><g id="Ebene_2-2"><polygon class="cls-1" points="201.09 220 421.08 0 388.89 0 168.89 220 201.09 220"/><polygon class="cls-1" points="351.06 220 440 131.06 440 98.86 318.87 220 351.06 220"/><polygon class="cls-1" points="51.11 220 271.11 0 238.91 0 18.92 220 51.11 220"/><polygon class="cls-1" points="126.1 220 346.1 0 313.9 0 93.9 220 126.1 220"/><polygon class="cls-1" points="388.55 220 440 168.55 440 136.36 356.36 220 388.55 220"/><polygon class="cls-1" points="88.61 220 308.6 0 276.41 0 56.41 220 88.61 220"/><polygon class="cls-1" points="313.57 220 440 93.56 440 61.37 281.37 220 313.57 220"/><polygon class="cls-1" points="163.59 220 383.59 0 351.39 0 131.4 220 163.59 220"/><polygon class="cls-1" points="238.58 220 440 18.58 440 0 426.38 0 206.39 220 238.58 220"/><polygon class="cls-1" points="276.07 220 440 56.07 440 23.88 243.88 220 276.07 220"/><polygon class="cls-1" points="0 0 0 8.65 8.65 0 0 0"/><polygon class="cls-1" points="126.43 0 0 126.44 0 158.63 158.63 0 126.43 0"/><polygon class="cls-1" points="13.95 0 0 13.95 0 46.15 46.15 0 13.95 0"/><polygon class="cls-1" points="163.93 0 0 163.93 0 196.12 196.12 0 163.93 0"/><polygon class="cls-1" points="88.94 0 0 88.94 0 121.14 121.13 0 88.94 0"/><polygon class="cls-1" points="440 220 440 211.35 431.35 220 440 220"/><polygon class="cls-1" points="426.05 220 440 206.05 440 173.85 393.85 220 426.05 220"/><polygon class="cls-1" points="51.45 0 0 51.45 0 83.64 83.64 0 51.45 0"/><polygon class="cls-1" points="201.42 0 0 201.42 0 220 13.62 220 233.61 0 201.42 0"/><polygon class="cls-2" points="93.9 220 313.9 0 308.6 0 88.61 220 93.9 220"/><polygon class="cls-2" points="196.12 0 0 196.12 0 201.42 201.42 0 196.12 0"/><polygon class="cls-2" points="238.91 0 233.61 0 13.62 220 18.92 220 238.91 0"/><polygon class="cls-2" points="56.41 220 276.41 0 271.11 0 51.11 220 56.41 220"/><polygon class="cls-2" points="121.13 0 0 121.14 0 126.44 126.43 0 121.13 0"/><polygon class="cls-2" points="46.15 0 0 46.15 0 51.45 51.45 0 46.15 0"/><polygon class="cls-2" points="83.64 0 0 83.64 0 88.94 88.94 0 83.64 0"/><polygon class="cls-2" points="8.65 0 0 8.65 0 13.95 13.95 0 8.65 0"/><polygon class="cls-2" points="158.63 0 0 158.63 0 163.93 163.93 0 158.63 0"/><polygon class="cls-2" points="356.36 220 440 136.36 440 131.06 351.06 220 356.36 220"/><polygon class="cls-2" points="393.85 220 440 173.85 440 168.55 388.55 220 393.85 220"/><polygon class="cls-2" points="431.35 220 440 211.35 440 206.05 426.05 220 431.35 220"/><polygon class="cls-2" points="318.87 220 440 98.86 440 93.56 313.57 220 318.87 220"/><polygon class="cls-2" points="206.39 220 426.38 0 421.08 0 201.09 220 206.39 220"/><polygon class="cls-2" points="168.89 220 388.89 0 383.59 0 163.59 220 168.89 220"/><polygon class="cls-2" points="243.88 220 440 23.88 440 18.58 238.58 220 243.88 220"/><polygon class="cls-2" points="281.37 220 440 61.37 440 56.07 276.07 220 281.37 220"/><polygon class="cls-2" points="131.4 220 351.39 0 346.1 0 126.1 220 131.4 220"/></g></svg>