<?xml version="1.0" encoding="UTF-8"?><svg id="Ebene_2" xmlns="http://www.w3.org/2000/svg" viewBox="0 0 1923 1083"><defs><style>.cls-1{fill:none;stroke:var(--theme-color);stroke-miterlimit:10;stroke-width:3px;}</style></defs><g id="Ebene_1-2"><polygon class="cls-1" points="974.37 1.5 1.5 974.39 1.5 978.63 978.62 1.5 974.37 1.5"/><polygon class="cls-1" points="1094.37 1.5 14.39 1081.5 18.63 1081.5 1098.62 1.5 1094.37 1.5"/><polygon class="cls-1" points="1004.37 1.5 1.5 1004.39 1.5 1008.63 1008.62 1.5 1004.37 1.5"/><polygon class="cls-1" points="1034.37 1.5 1.5 1034.39 1.5 1038.63 1038.62 1.5 1034.37 1.5"/><polygon class="cls-1" points="1064.37 1.5 1.5 1064.39 1.5 1068.63 1068.62 1.5 1064.37 1.5"/><polygon class="cls-1" points="944.37 1.5 1.5 944.39 1.5 948.63 948.62 1.5 944.37 1.5"/><polygon class="cls-1" points="794.38 1.5 1.5 794.39 1.5 798.63 798.62 1.5 794.38 1.5"/><polygon class="cls-1" points="824.38 1.5 1.5 824.39 1.5 828.63 828.62 1.5 824.38 1.5"/><polygon class="cls-1" points="914.38 1.5 1.5 914.39 1.5 918.63 918.62 1.5 914.38 1.5"/><polygon class="cls-1" points="764.38 1.5 1.5 764.39 1.5 768.63 768.62 1.5 764.38 1.5"/><polygon class="cls-1" points="854.38 1.5 1.5 854.39 1.5 858.63 858.62 1.5 854.38 1.5"/><polygon class="cls-1" points="884.38 1.5 1.5 884.39 1.5 888.63 888.62 1.5 884.38 1.5"/><polygon class="cls-1" points="1214.37 1.5 134.39 1081.5 138.63 1081.5 1218.62 1.5 1214.37 1.5"/><polygon class="cls-1" points="1124.37 1.5 44.39 1081.5 48.63 1081.5 1128.62 1.5 1124.37 1.5"/><polygon class="cls-1" points="1484.37 1.5 404.39 1081.5 408.63 1081.5 1488.61 1.5 1484.37 1.5"/><polygon class="cls-1" points="1394.37 1.5 314.39 1081.5 318.63 1081.5 1398.61 1.5 1394.37 1.5"/><polygon class="cls-1" points="1424.37 1.5 344.39 1081.5 348.63 1081.5 1428.61 1.5 1424.37 1.5"/><polygon class="cls-1" points="1454.37 1.5 374.39 1081.5 378.63 1081.5 1458.61 1.5 1454.37 1.5"/><polygon class="cls-1" points="1334.37 1.5 254.39 1081.5 258.63 1081.5 1338.61 1.5 1334.37 1.5"/><polygon class="cls-1" points="1184.37 1.5 104.39 1081.5 108.63 1081.5 1188.62 1.5 1184.37 1.5"/><polygon class="cls-1" points="1154.37 1.5 74.39 1081.5 78.63 1081.5 1158.62 1.5 1154.37 1.5"/><polygon class="cls-1" points="1274.37 1.5 194.39 1081.5 198.63 1081.5 1278.61 1.5 1274.37 1.5"/><polygon class="cls-1" points="1304.37 1.5 224.39 1081.5 228.63 1081.5 1308.61 1.5 1304.37 1.5"/><polygon class="cls-1" points="1244.37 1.5 164.39 1081.5 168.63 1081.5 1248.61 1.5 1244.37 1.5"/><polygon class="cls-1" points="1364.37 1.5 284.39 1081.5 288.63 1081.5 1368.61 1.5 1364.37 1.5"/><polygon class="cls-1" points="224.38 1.5 1.5 224.38 1.5 228.63 228.62 1.5 224.38 1.5"/><polygon class="cls-1" points="254.38 1.5 1.5 254.38 1.5 258.63 258.62 1.5 254.38 1.5"/><polygon class="cls-1" points="194.38 1.5 1.5 194.38 1.5 198.63 198.62 1.5 194.38 1.5"/><polygon class="cls-1" points="344.38 1.5 1.5 344.38 1.5 348.63 348.62 1.5 344.38 1.5"/><polygon class="cls-1" points="314.38 1.5 1.5 314.38 1.5 318.63 318.62 1.5 314.38 1.5"/><polygon class="cls-1" points="284.38 1.5 1.5 284.38 1.5 288.63 288.62 1.5 284.38 1.5"/><polygon class="cls-1" points="164.38 1.5 1.5 164.38 1.5 168.63 168.62 1.5 164.38 1.5"/><polygon class="cls-1" points="14.38 1.5 1.5 14.38 1.5 18.63 18.63 1.5 14.38 1.5"/><polygon class="cls-1" points="44.38 1.5 1.5 44.38 1.5 48.63 48.62 1.5 44.38 1.5"/><polygon class="cls-1" points="104.38 1.5 1.5 104.38 1.5 108.63 108.62 1.5 104.38 1.5"/><polygon class="cls-1" points="134.38 1.5 1.5 134.38 1.5 138.63 138.62 1.5 134.38 1.5"/><polygon class="cls-1" points="74.38 1.5 1.5 74.38 1.5 78.63 78.62 1.5 74.38 1.5"/><polygon class="cls-1" points="644.38 1.5 1.5 644.39 1.5 648.63 648.62 1.5 644.38 1.5"/><polygon class="cls-1" points="554.38 1.5 1.5 554.39 1.5 558.63 558.62 1.5 554.38 1.5"/><polygon class="cls-1" points="734.38 1.5 1.5 734.39 1.5 738.63 738.62 1.5 734.38 1.5"/><polygon class="cls-1" points="584.38 1.5 1.5 584.39 1.5 588.63 588.62 1.5 584.38 1.5"/><polygon class="cls-1" points="374.38 1.5 1.5 374.39 1.5 378.63 378.62 1.5 374.38 1.5"/><polygon class="cls-1" points="674.38 1.5 1.5 674.39 1.5 678.63 678.62 1.5 674.38 1.5"/><polygon class="cls-1" points="704.38 1.5 1.5 704.39 1.5 708.63 708.62 1.5 704.38 1.5"/><polygon class="cls-1" points="614.38 1.5 1.5 614.39 1.5 618.63 618.62 1.5 614.38 1.5"/><polygon class="cls-1" points="434.38 1.5 1.5 434.39 1.5 438.63 438.62 1.5 434.38 1.5"/><polygon class="cls-1" points="404.38 1.5 1.5 404.39 1.5 408.63 408.62 1.5 404.38 1.5"/><polygon class="cls-1" points="464.38 1.5 1.5 464.39 1.5 468.63 468.62 1.5 464.38 1.5"/><polygon class="cls-1" points="524.38 1.5 1.5 524.39 1.5 528.63 528.62 1.5 524.38 1.5"/><polygon class="cls-1" points="494.38 1.5 1.5 494.39 1.5 498.63 498.62 1.5 494.38 1.5"/><polygon class="cls-1" points="1608.62 1081.5 1921.5 768.62 1921.5 764.37 1604.38 1081.5 1608.62 1081.5"/><polygon class="cls-1" points="1278.62 1081.5 1921.5 438.61 1921.5 434.37 1274.38 1081.5 1278.62 1081.5"/><polygon class="cls-1" points="1308.62 1081.5 1921.5 468.61 1921.5 464.37 1304.38 1081.5 1308.62 1081.5"/><polygon class="cls-1" points="1188.62 1081.5 1921.5 348.61 1921.5 344.37 1184.38 1081.5 1188.62 1081.5"/><polygon class="cls-1" points="1338.62 1081.5 1921.5 498.61 1921.5 494.37 1334.38 1081.5 1338.62 1081.5"/><polygon class="cls-1" points="1248.62 1081.5 1921.5 408.61 1921.5 404.37 1244.38 1081.5 1248.62 1081.5"/><polygon class="cls-1" points="1218.62 1081.5 1921.5 378.61 1921.5 374.37 1214.38 1081.5 1218.62 1081.5"/><polygon class="cls-1" points="1368.62 1081.5 1921.5 528.61 1921.5 524.37 1364.38 1081.5 1368.62 1081.5"/><polygon class="cls-1" points="1488.62 1081.5 1921.5 648.61 1921.5 644.37 1484.38 1081.5 1488.62 1081.5"/><polygon class="cls-1" points="1548.62 1081.5 1921.5 708.62 1921.5 704.37 1544.38 1081.5 1548.62 1081.5"/><polygon class="cls-1" points="1458.62 1081.5 1921.5 618.61 1921.5 614.37 1454.38 1081.5 1458.62 1081.5"/><polygon class="cls-1" points="1398.62 1081.5 1921.5 558.61 1921.5 554.37 1394.38 1081.5 1398.62 1081.5"/><polygon class="cls-1" points="1428.62 1081.5 1921.5 588.61 1921.5 584.37 1424.38 1081.5 1428.62 1081.5"/><polygon class="cls-1" points="1518.62 1081.5 1921.5 678.62 1921.5 674.37 1514.38 1081.5 1518.62 1081.5"/><polygon class="cls-1" points="948.63 1081.5 1921.5 108.61 1921.5 104.37 944.38 1081.5 948.63 1081.5"/><polygon class="cls-1" points="978.63 1081.5 1921.5 138.61 1921.5 134.37 974.38 1081.5 978.63 1081.5"/><polygon class="cls-1" points="918.63 1081.5 1921.5 78.61 1921.5 74.37 914.38 1081.5 918.63 1081.5"/><polygon class="cls-1" points="858.63 1081.5 1921.5 18.61 1921.5 14.37 854.38 1081.5 858.63 1081.5"/><polygon class="cls-1" points="888.63 1081.5 1921.5 48.61 1921.5 44.37 884.38 1081.5 888.63 1081.5"/><polygon class="cls-1" points="1098.63 1081.5 1921.5 258.61 1921.5 254.37 1094.38 1081.5 1098.63 1081.5"/><polygon class="cls-1" points="1158.62 1081.5 1921.5 318.61 1921.5 314.37 1154.38 1081.5 1158.62 1081.5"/><polygon class="cls-1" points="1128.62 1081.5 1921.5 288.61 1921.5 284.37 1124.38 1081.5 1128.62 1081.5"/><polygon class="cls-1" points="1068.63 1081.5 1921.5 228.61 1921.5 224.37 1064.38 1081.5 1068.63 1081.5"/><polygon class="cls-1" points="1038.63 1081.5 1921.5 198.61 1921.5 194.37 1034.38 1081.5 1038.63 1081.5"/><polygon class="cls-1" points="1008.63 1081.5 1921.5 168.61 1921.5 164.37 1004.38 1081.5 1008.63 1081.5"/><polygon class="cls-1" points="1668.62 1081.5 1921.5 828.62 1921.5 824.37 1664.38 1081.5 1668.62 1081.5"/><polygon class="cls-1" points="1874.37 1.5 794.38 1081.5 798.63 1081.5 1878.61 1.5 1874.37 1.5"/><polygon class="cls-1" points="1694.37 1.5 614.39 1081.5 618.63 1081.5 1698.61 1.5 1694.37 1.5"/><polygon class="cls-1" points="1784.37 1.5 704.39 1081.5 708.63 1081.5 1788.61 1.5 1784.37 1.5"/><polygon class="cls-1" points="1724.37 1.5 644.39 1081.5 648.63 1081.5 1728.61 1.5 1724.37 1.5"/><polygon class="cls-1" points="1844.37 1.5 764.38 1081.5 768.63 1081.5 1848.61 1.5 1844.37 1.5"/><polygon class="cls-1" points="1814.37 1.5 734.39 1081.5 738.63 1081.5 1818.61 1.5 1814.37 1.5"/><polygon class="cls-1" points="1754.37 1.5 674.39 1081.5 678.63 1081.5 1758.61 1.5 1754.37 1.5"/><polygon class="cls-1" points="1664.37 1.5 584.39 1081.5 588.63 1081.5 1668.61 1.5 1664.37 1.5"/><polygon class="cls-1" points="1574.37 1.5 494.39 1081.5 498.63 1081.5 1578.61 1.5 1574.37 1.5"/><polygon class="cls-1" points="1544.37 1.5 464.39 1081.5 468.63 1081.5 1548.61 1.5 1544.37 1.5"/><polygon class="cls-1" points="1604.37 1.5 524.39 1081.5 528.63 1081.5 1608.61 1.5 1604.37 1.5"/><polygon class="cls-1" points="1634.37 1.5 554.39 1081.5 558.63 1081.5 1638.61 1.5 1634.37 1.5"/><polygon class="cls-1" points="1908.62 1081.5 1921.5 1068.62 1921.5 1064.38 1904.38 1081.5 1908.62 1081.5"/><polygon class="cls-1" points="1698.62 1081.5 1921.5 858.62 1921.5 854.37 1694.38 1081.5 1698.62 1081.5"/><polygon class="cls-1" points="1728.62 1081.5 1921.5 888.62 1921.5 884.37 1724.38 1081.5 1728.62 1081.5"/><polygon class="cls-1" points="1638.62 1081.5 1921.5 798.62 1921.5 794.37 1634.38 1081.5 1638.62 1081.5"/><polygon class="cls-1" points="1758.62 1081.5 1921.5 918.62 1921.5 914.37 1754.38 1081.5 1758.62 1081.5"/><polygon class="cls-1" points="1514.37 1.5 434.39 1081.5 438.63 1081.5 1518.61 1.5 1514.37 1.5"/><polygon class="cls-1" points="1878.62 1081.5 1921.5 1038.62 1921.5 1034.38 1874.38 1081.5 1878.62 1081.5"/><polygon class="cls-1" points="1578.62 1081.5 1921.5 738.62 1921.5 734.37 1574.38 1081.5 1578.62 1081.5"/><polygon class="cls-1" points="1904.37 1.5 824.38 1081.5 828.63 1081.5 1908.61 1.5 1904.37 1.5"/><polygon class="cls-1" points="1818.62 1081.5 1921.5 978.62 1921.5 974.38 1814.38 1081.5 1818.62 1081.5"/><polygon class="cls-1" points="1788.62 1081.5 1921.5 948.62 1921.5 944.37 1784.38 1081.5 1788.62 1081.5"/><polygon class="cls-1" points="1848.62 1081.5 1921.5 1008.62 1921.5 1004.38 1844.38 1081.5 1848.62 1081.5"/></g></svg>