<?xml version="1.0" encoding="UTF-8"?><svg id="Ebene_2" xmlns="http://www.w3.org/2000/svg" viewBox="0 0 375 225"><defs><style>.cls-1{fill:none;}.cls-1,.cls-2{stroke-width:0px;}.cls-2{fill:var(--main-white);}</style></defs><g id="Ebene_1-2"><polygon class="cls-1" points="155.75 225 375 5.74 375 0 332.24 0 107.24 225 155.75 225"/><polygon class="cls-1" points="162.76 0 0 162.76 0 211.27 211.27 0 162.76 0"/><polygon class="cls-1" points="219.25 0 0 219.26 0 225 42.76 225 267.76 0 219.25 0"/><polygon class="cls-1" points="375 225 375 183.21 333.21 225 375 225"/><polygon class="cls-1" points="106.27 0 0 106.27 0 154.78 154.78 0 106.27 0"/><polygon class="cls-1" points="212.24 225 375 62.24 375 13.73 163.73 225 212.24 225"/><polygon class="cls-1" points="99.26 225 324.25 0 275.74 0 50.75 225 99.26 225"/><polygon class="cls-1" points="325.22 225 375 175.22 375 126.71 276.72 225 325.22 225"/><polygon class="cls-1" points="0 0 0 41.79 41.79 0 0 0"/><polygon class="cls-1" points="268.73 225 375 118.73 375 70.22 220.22 225 268.73 225"/><polygon class="cls-1" points="49.78 0 0 49.78 0 98.29 98.28 0 49.78 0"/><polygon class="cls-2" points="275.74 0 267.76 0 42.76 225 50.75 225 275.74 0"/><polygon class="cls-2" points="98.28 0 0 98.29 0 106.27 106.27 0 98.28 0"/><polygon class="cls-2" points="154.78 0 0 154.78 0 162.76 162.76 0 154.78 0"/><polygon class="cls-2" points="211.27 0 0 211.27 0 219.26 219.25 0 211.27 0"/><polygon class="cls-2" points="41.79 0 0 41.79 0 49.78 49.78 0 41.79 0"/><polygon class="cls-2" points="220.22 225 375 70.22 375 62.24 212.24 225 220.22 225"/><polygon class="cls-2" points="163.73 225 375 13.73 375 5.74 155.75 225 163.73 225"/><polygon class="cls-2" points="276.72 225 375 126.71 375 118.73 268.73 225 276.72 225"/><polygon class="cls-2" points="333.21 225 375 183.21 375 175.22 325.22 225 333.21 225"/><polygon class="cls-2" points="107.24 225 332.24 0 324.25 0 99.26 225 107.24 225"/></g></svg>